<?xml version="1.0" standalone="no"?><!DOCTYPE svg PUBLIC "-//W3C//DTD SVG 1.1//EN" "http://www.w3.org/Graphics/SVG/1.1/DTD/svg11.dtd"><svg class="icon" width="200px" height="200.00px" viewBox="0 0 1024 1024" version="1.1" xmlns="http://www.w3.org/2000/svg"><path fill="#000000" d="M865.4 123.5H151.6c-53.8 0-97.5 43.7-97.5 97.5v429.2c0 53.8 43.7 97.5 97.5 97.5h334.9V846h-95.9c-12.2 0-22 9.8-22 22s9.8 22 22 22h235.8c12.2 0 22.1-9.8 22.1-22s-9.8-22-22-22h-96v-98.3h334.9c53.8 0 97.5-43.8 97.5-97.5V221c0-53.8-43.7-97.5-97.5-97.5z m53.5 526.7c0 14.3-5.6 27.7-15.7 37.8-10.1 10.1-23.5 15.7-37.8 15.7H151.6c-14.2 0-27.7-5.6-37.8-15.7-10.1-10.2-15.7-23.6-15.7-37.8V221c0-29.5 24-53.5 53.5-53.5h713.8c14.2 0 27.7 5.6 37.8 15.7 10.1 10.2 15.7 23.6 15.7 37.8v429.2z"  /></svg>