<?xml version="1.0" standalone="no"?><!DOCTYPE svg PUBLIC "-//W3C//DTD SVG 1.1//EN" "http://www.w3.org/Graphics/SVG/1.1/DTD/svg11.dtd"><svg class="icon" width="200px" height="200.00px" viewBox="0 0 1024 1024" version="1.1" xmlns="http://www.w3.org/2000/svg"><path fill="#000000" d="M616 546.4c9.6 0 17.6-12 17.6-27.2v-75.2c0-15.2-8-27.2-17.6-27.2-9.6 0-17.6 12-17.6 27.2v75.2c0 14.4 7.2 27.2 17.6 27.2zM391.2 546.4c9.6 0 17.6-12 17.6-27.2v-75.2c0-15.2-8-27.2-17.6-27.2s-17.6 12-17.6 27.2v75.2c0 14.4 8 27.2 17.6 27.2z"  /><path fill="#000000" d="M894.4 1006.4h-776c-40 0-72-32-72-72v-832c0-40 32-72 72-72h776c40 0 72 32 72 72v832c0 39.2-32 72-72 72z m-776-928c-13.6 0-24 10.4-24 24v832c0 13.6 10.4 24 24 24h776c13.6 0 24-10.4 24-24v-832c0-13.6-10.4-24-24-24h-776z"  /><path fill="#000000" d="M506.4 982.4c-12.8 0-23.2-10.4-23.2-23.2V72.8c0-12.8 10.4-23.2 23.2-23.2 12.8 0 23.2 10.4 23.2 23.2v886.4c0 12.8-10.4 23.2-23.2 23.2z"  /></svg>