<?xml version="1.0" standalone="no"?><!DOCTYPE svg PUBLIC "-//W3C//DTD SVG 1.1//EN" "http://www.w3.org/Graphics/SVG/1.1/DTD/svg11.dtd"><svg class="icon" width="200px" height="200.00px" viewBox="0 0 1024 1024" version="1.1" xmlns="http://www.w3.org/2000/svg"><path fill="#000000" d="M674.5 748.4H419.8c-24.7 0-45.5-20.3-45.5-44.3V445.7c0-20.3 15.6-28 23.1-31.7l0.5-0.3c35.4-22.1 61.7-49.5 78.2-81.6l0.2-0.4c7.3-13.5 10.6-28.9 14.1-45.2 7.9-37.4 14.8-69.7 64.8-69.7 24 0 40.1 11 48 32.6l1.4 3.7v0.2c7.2 22.7 5.7 55.7-4.3 91.6-10 35.8-26.3 67.2-43.6 84-2 2.1-2.2 3.6-1.9 5 1.7 1.7 6.6 4.3 11.4 4.3h159.9c10.4 0 25.5 1.5 36.2 14.6l0.7 0.8 0.6 0.9c6.1 9.2 8.3 19.2 6.7 30.6l-0.1 1-0.2 1c-20.9 88.2-49 211.1-51.4 221.7v0.2c-4.4 21.5-24.5 39.4-44.1 39.4z m-255.6-45.1c0.3 0.2 0.7 0.5 0.9 0.5h252.4c1-0.8 2-2.1 2.4-3l0.2-0.9c0.3-1.2 28.6-125.3 50.3-216.8H566.2c-22.7 0-44.8-13.1-52.5-31.1l-0.4-1.1c-7.1-18.9-2.7-38.9 11.9-53.5l0.3-0.3c9.5-9.1 22.9-32.4 31.7-63.9 9.4-33.9 8.2-57.6 4.2-67.6l-0.9-2.3c-0.3-0.6-0.5-0.9-0.6-1.1-0.5-0.2-2-0.5-4.8-0.5-3.8 0-10.4 0.3-11.7 2-3.6 4.9-6.9 20.8-9.4 32.3-3.8 17.8-8.1 37.9-18.3 56.9-20.3 39.5-52.3 72.9-95 99.4l-1 0.6-0.8 0.4v250z"  /><path fill="#000000" d="M369.9 748.4H305c-27 0-48.9-21.9-48.9-48.9V465c0-27 21.9-48.9 48.9-48.9h64.9c27 0 48.9 21.9 48.9 48.9v234.5c0 27-21.9 48.9-48.9 48.9zM305 460.8c-2.3 0-4.2 1.9-4.2 4.2v234.5c0 2.3 1.9 4.2 4.2 4.2h64.9c2.3 0 4.2-1.9 4.2-4.2V465c0-2.3-1.9-4.2-4.2-4.2H305z"  /><path fill="#000000" d="M513.5 957.6c-60.3 0-118.8-11.8-173.9-35-53.2-22.4-101-54.5-142-95.4-41-40.9-73.2-88.5-95.7-141.5-23.3-54.9-35.1-113.2-35.1-173.3S78.6 394 101.9 339.1c22.5-53 54.7-100.6 95.7-141.5 41-40.9 88.8-73 142-95.4 55.1-23.2 113.6-35 173.9-35s118.8 11.8 173.9 35c53.2 22.4 101 54.5 142 95.4 41 40.9 73.2 88.5 95.7 141.5 23.3 54.9 35.1 113.2 35.1 173.3s-11.8 118.4-35.1 173.3c-22.5 53-54.7 100.6-95.7 141.5-41 40.9-88.8 73-142 95.4-55.1 23.2-113.6 35-173.9 35z m0-845.7c-221.7 0-402 179.7-402 400.5s180.4 400.5 402 400.5c221.7 0 402-179.7 402-400.5s-180.3-400.5-402-400.5z"  /></svg>