<?xml version="1.0" standalone="no"?><!DOCTYPE svg PUBLIC "-//W3C//DTD SVG 1.1//EN" "http://www.w3.org/Graphics/SVG/1.1/DTD/svg11.dtd"><svg class="icon" width="200px" height="200.00px" viewBox="0 0 1024 1024" version="1.1" xmlns="http://www.w3.org/2000/svg"><path fill="#000000" d="M954.181818 186.181818H69.818182c-39.563636 0-69.818182 30.254545-69.818182 69.818182v605.090909c0 39.563636 30.254545 69.818182 69.818182 69.818182h93.090909l-41.890909 55.854545c-6.981818 9.309091-4.654545 25.6 4.654545 32.581819 4.654545 2.327273 9.309091 4.654545 13.963637 4.654545 6.981818 0 13.963636-2.327273 18.618181-9.309091L221.090909 930.909091h581.818182l62.836364 83.781818c4.654545 6.981818 11.636364 9.309091 18.618181 9.309091 4.654545 0 9.309091-2.327273 13.963637-4.654545 9.309091-6.981818 11.636364-23.272727 4.654545-32.581819L861.090909 930.909091h93.090909c39.563636 0 69.818182-30.254545 69.818182-69.818182V256c0-39.563636-30.254545-69.818182-69.818182-69.818182zM69.818182 232.727273h884.363636c13.963636 0 23.272727 9.309091 23.272727 23.272727v535.272727H46.545455V256c0-13.963636 9.309091-23.272727 23.272727-23.272727z m884.363636 651.636363H69.818182c-13.963636 0-23.272727-9.309091-23.272727-23.272727v-23.272727h930.90909v23.272727c0 13.963636-9.309091 23.272727-23.272727 23.272727z"  /><path fill="#000000" d="M328.145455 428.218182c4.654545 6.981818 11.636364 13.963636 20.945454 13.963636s16.290909-4.654545 20.945455-13.963636l46.545454-93.090909c4.654545-11.636364 0-25.6-9.309091-30.254546-11.636364-4.654545-25.6 0-30.254545 9.309091L349.090909 367.709091l-25.6-51.2c-4.654545-11.636364-18.618182-16.290909-30.254545-9.309091-11.636364 4.654545-16.290909 18.618182-9.309091 30.254545l44.218182 90.763637zM139.636364 349.090909h23.272727v69.818182c0 13.963636 9.309091 23.272727 23.272727 23.272727s23.272727-9.309091 23.272727-23.272727v-69.818182h23.272728c13.963636 0 23.272727-9.309091 23.272727-23.272727s-9.309091-23.272727-23.272727-23.272727H139.636364c-13.963636 0-23.272727 9.309091-23.272728 23.272727s9.309091 23.272727 23.272728 23.272727z"  /></svg>