<?xml version="1.0" standalone="no"?><!DOCTYPE svg PUBLIC "-//W3C//DTD SVG 1.1//EN" "http://www.w3.org/Graphics/SVG/1.1/DTD/svg11.dtd"><svg class="icon" width="200px" height="200.00px" viewBox="0 0 1024 1024" version="1.1" xmlns="http://www.w3.org/2000/svg"><path fill="#000000" d="M38.4 128a25.6 25.6 0 0 1 25.6-25.6h74.6496a25.6 25.6 0 0 1 24.832 19.4048l27.136 108.5952h748.032a25.6 25.6 0 0 1 24.832 31.7952l-106.6496 426.7008a25.6 25.6 0 0 1-24.832 19.3536H277.3504a25.6 25.6 0 0 1-24.832-19.3536L118.6816 153.6H64a25.6 25.6 0 0 1-25.6-25.6z m165.0688 153.6l93.8496 375.4496H812.032L905.8816 281.6H203.4176z m73.8816 512a38.4 38.4 0 1 0 0 76.8 38.4 38.4 0 0 0 0-76.8z m-89.6 38.4a89.6 89.6 0 1 1 179.2 0 89.6 89.6 0 0 1-179.2 0z m605.8496 0a38.4 38.4 0 1 1 76.8 0 38.4 38.4 0 0 1-76.8 0z m38.4-89.6a89.6 89.6 0 1 0 0 179.2 89.6 89.6 0 0 0 0-179.2z"  /></svg>