<?xml version="1.0" standalone="no"?><!DOCTYPE svg PUBLIC "-//W3C//DTD SVG 1.1//EN" "http://www.w3.org/Graphics/SVG/1.1/DTD/svg11.dtd"><svg class="icon" width="200px" height="184.34px" viewBox="0 0 1111 1024" version="1.1" xmlns="http://www.w3.org/2000/svg"><path fill="#000000" d="M833.526371 573.359828a42.460609 42.460609 0 0 0 12.41793 29.606961 43.005255 43.005255 0 0 0 30.064464 12.221859 43.811331 43.811331 0 0 0 30.282323-12.221859 41.872391 41.872391 0 0 0 12.417931-29.606961 42.417037 42.417037 0 0 0-12.417931-29.585175 43.310257 43.310257 0 0 0-60.346787 0 41.872391 41.872391 0 0 0-12.41793 29.585175z m-199.994043 0a42.460609 42.460609 0 0 0 12.41793 29.606961 43.353828 43.353828 0 0 0 60.346787 0 41.872391 41.872391 0 0 0 12.417931-29.606961 42.417037 42.417037 0 0 0-12.417931-29.585175 43.310257 43.310257 0 0 0-60.346787 0 41.872391 41.872391 0 0 0-12.41793 29.585175z m-197.379742 0a42.460609 42.460609 0 0 0 12.417931 29.606961 43.92026 43.92026 0 0 0 30.282322 12.221859 43.310257 43.310257 0 0 0 30.064464-12.221859 41.872391 41.872391 0 0 0 12.417931-29.606961 42.417037 42.417037 0 0 0-12.417931-29.585175 43.027041 43.027041 0 0 0-30.064464-12.243644 44.334191 44.334191 0 0 0-30.282322 12.243644 43.789545 43.789545 0 0 0-12.417931 29.585175zM141.172266 808.450865A139.99583 139.99583 0 0 1 0 669.783971V116.859264C0 40.390954 63.178946-0.021786 141.172266-0.021786h725.468587c77.775461 0 141.172266 40.41274 141.172265 116.88105 0 17.777248-4.357169 32.199477-22.657277 32.199477s-29.19303-49.889582-29.19303-49.889582a80.411548 80.411548 0 0 0-89.321958-56.643193H141.172266c-41.828819 0-96.729145 33.33234-96.729145 74.311512l-2.83216 552.924707c0 40.979172 44.878838 97.448078 86.707657 97.448078 18.08225 0 45.750271 0 45.750271 17.886178s-14.814374 23.354424-32.896623 23.354424z m533.535306 215.461992a30.500181 30.500181 0 0 1-19.607259-7.080399l-146.18301-122.262154-185.615386-0.740719c-69.278982-0.26143-105.661341-55.967832-105.443482-124.179307l0.435716-459.681297c0.217858-32.918409-6.97147-50.957088 16.992958-74.267941s60.564645-16.905815 93.896986-16.905814c0.217858 0-0.435717-0.348573-0.217859-0.348574l676.45044-0.348573c69.496841 0.283216 105.443482 27.384805 105.225623 95.574495l0.435717 459.681297c-0.217858 68.015403-36.818075 123.177159-105.879199 123.177159h-0.653575l-171.23673-0.697147-138.557964 120.584643a30.260537 30.260537 0 0 1-20.042976 7.516116zM324.391209 262.519414a80.237261 80.237261 0 0 0-44.443121 11.89507 44.02919 44.02919 0 0 0-19.3894 35.772355l-1.960726 459.681297c-0.217858 35.423781 28.975172 79.344042 64.921813 79.496543l196.726167-0.239644a30.500181 30.500181 0 0 1 19.3894 7.428972l134.636513 122.000724 127.665043-123.569305a29.018743 29.018743 0 0 1 20.042976-5.773248s0.217858 12.243644 0.217858-0.326788l182.565368 1.045721c0.217858 0 0.217858-0.326788 0.435717-0.326788 35.728783 0 64.921814-41.240602 65.139672-76.599025l1.960726-459.681297c0-35.445567-28.975172-52.808885-65.139672-52.9396l-681.025466 0.675361c0 6.230751-1.742867 1.459652-1.742868 1.459652z"  /></svg>