<?xml version="1.0" standalone="no"?><!DOCTYPE svg PUBLIC "-//W3C//DTD SVG 1.1//EN" "http://www.w3.org/Graphics/SVG/1.1/DTD/svg11.dtd"><svg class="icon" width="200px" height="200.00px" viewBox="0 0 1024 1024" version="1.1" xmlns="http://www.w3.org/2000/svg"><path fill="#000000" d="M455.980637 371.948267l-84.029812 0c-7.740288 0-14.004969 6.263657-14.004969 14.004969s6.263657 14.005992 14.004969 14.005992l84.029812 0c7.740288 0 14.004969-6.264681 14.004969-14.005992S463.720925 371.948267 455.980637 371.948267zM531.612175 315.928393 268.30935 315.928393c-27.845185 0-50.412157 22.566972-50.412157 50.41318l0 543.406291c0 27.818579 22.566972 50.412157 50.412157 50.412157l263.302825 0c27.845185 0 50.412157-22.593578 50.412157-50.412157l0-543.406291C582.024332 338.494341 559.45736 315.928393 531.612175 315.928393zM554.013371 909.747863c0 12.363585-10.038634 22.403243-22.402219 22.403243L268.30935 932.151106c-12.363585 0-22.402219-10.039657-22.402219-22.403243l0-61.627592 308.107263 0L554.014394 909.747863zM554.013371 820.111357l-308.107263 0L245.906108 441.972087l308.107263 0L554.013371 820.111357zM554.013371 413.96215l-308.107263 0 0-47.621601c0-12.377912 10.038634-22.403243 22.402219-22.403243l263.302825 0c12.363585 0 22.402219 10.025331 22.402219 22.403243L554.013371 413.96215zM371.949802 904.140145l42.014906 0c7.741311 0 14.005992-6.263657 14.005992-14.004969 0-7.741311-6.263657-14.005992-14.005992-14.005992l-42.014906 0c-7.740288 0-14.004969 6.263657-14.004969 14.005992C357.945857 897.876488 364.209514 904.140145 371.949802 904.140145zM757.440503 63.83998 476.536812 63.83998c-23.947412 0-48.566112 19.475564-48.566112 43.451628L427.9707 293.047266c0 7.740288 6.263657 14.004969 14.004969 14.004969s14.005992-6.263657 14.005992-14.004969L455.98166 189.884698l322.111209 0 0 392.143215L624.038214 582.027913c-7.740288 0-14.004969 6.263657-14.004969 14.005992 0 7.740288 6.263657 14.004969 14.004969 14.004969l154.053632 0 0 49.974182c0 8.506744-12.130272 20.050662-20.651342 20.050662L616.994798 680.063717c-7.740288 0-14.004969 6.263657-14.004969 14.004969s6.263657 14.005992 14.004969 14.005992l140.445706 0c23.960715 0 48.66128-24.098861 48.66128-48.060599L806.101783 107.291608C806.101783 83.315544 781.401218 63.83998 757.440503 63.83998zM778.091846 161.874761 455.980637 161.874761l0-54.583153c0-8.521071 12.048407-15.441691 20.556175-15.441691l280.904715 0c8.520047 0 20.651342 6.92062 20.651342 15.441691L778.092869 161.874761zM638.044206 105.85591l-70.024843 0c-7.741311 0-14.005992 6.263657-14.005992 14.004969s6.263657 14.004969 14.005992 14.004969l70.024843 0c7.740288 0 14.004969-6.263657 14.004969-14.004969S645.784494 105.85591 638.044206 105.85591zM652.048151 652.051733c7.740288 0 14.004969-6.263657 14.004969-14.004969 0-7.741311-6.263657-14.005992-14.004969-14.005992l-42.014906 0c-7.740288 0-14.005992 6.263657-14.005992 14.005992 0 7.740288 6.264681 14.004969 14.005992 14.004969L652.048151 652.051733z" /></svg>