<?xml version="1.0" standalone="no"?><!DOCTYPE svg PUBLIC "-//W3C//DTD SVG 1.1//EN" "http://www.w3.org/Graphics/SVG/1.1/DTD/svg11.dtd"><svg class="icon" width="200px" height="142.52px" viewBox="0 0 1437 1024" version="1.1" xmlns="http://www.w3.org/2000/svg"><path fill="#000000" d="M35.929825 790.45614h1365.333333V35.929825H35.929825v754.526315zM0 35.956772A35.965754 35.965754 0 0 1 35.884912 0h1365.423158A35.902877 35.902877 0 0 1 1437.192982 35.956772v790.402246A35.965754 35.965754 0 0 1 1401.30807 862.315789H35.884912A35.902877 35.902877 0 0 1 0 826.359018V35.956772zM269.473684 862.315789h35.929825v71.85965l78.515649 45.002105a17.821193 17.821193 0 0 1 6.557193 24.450245 17.893053 17.893053 0 0 1-24.477193 6.620071l-78.291088-45.19972-77.213193 48.244772a17.964912 17.964912 0 0 1-19.114666-30.405614L269.473684 934.175439v-71.85965z m862.31579 0h35.929824v71.85965l78.515649 45.002105a17.821193 17.821193 0 0 1 6.557193 24.450245 17.893053 17.893053 0 0 1-24.477193 6.620071l-78.291087-45.19972-77.213193 48.244772a17.964912 17.964912 0 0 1-19.114667-30.405614L1131.789474 934.175439v-71.85965z" /></svg>