<?xml version="1.0" standalone="no"?><!DOCTYPE svg PUBLIC "-//W3C//DTD SVG 1.1//EN" "http://www.w3.org/Graphics/SVG/1.1/DTD/svg11.dtd"><svg class="icon" width="200px" height="200.00px" viewBox="0 0 1024 1024" version="1.1" xmlns="http://www.w3.org/2000/svg"><path fill="#000000" d="M971.136 421.034667c-19.285333-33.621333-52.992-49.962667-87.381333-44.202667l41.984-35.157333c36.650667-26.538667 44.714667-82.858667 17.536-123.008a82.773333 82.773333 0 0 0-54.442667-35.498667c-4.010667-0.725333-8.064-0.810667-12.074667-0.896 31.573333-28.629333 36.736-81.237333 10.112-118.741333a82.048 82.048 0 0 0-117.973333-17.877334l-11.392 9.514667C741.461333 22.912 708.309333 0 670.72 0H350.421333C299.264 0 256 44.714667 256 97.621333v142.208c-15.36-43.477333-36.138667-80.682667-64.085333-98.816-21.888-14.165333-46.890667-16.554667-72.448-6.698666-48.896 18.816-43.093333 95.36-34.986667 201.301333 7.210667 94.976 16.256 213.205333-17.621333 297.429333-32.469333 80.853333-26.496 175.701333 15.658666 247.637334 30.592 52.224 94.634667 118.058667 225.834667 134.997333 2.645333 0.341333 5.546667 0.512 8.661333 0.512 73.472 0 255.317333-94.848 302.506667-120.149333h51.157333c50.56 0 93.141333-40.533333 96.64-89.770667a1373.994667 1373.994667 0 0 0 130.005334-90.026667c30.549333-22.997333 64.298667-55.552 53.76-103.594666a81.194667 81.194667 0 0 0-36.352-51.797334c-1.109333-0.725333-2.304-1.408-3.413334-2.048l28.885334-19.2c39.936-30.378667 52.053333-75.264 30.933333-118.570666zM725.333333 725.376H298.666667V170.666667h426.666666v554.709333z m182.613334-482.773333c13.824 20.437333 10.325333 51.797333-8.405334 65.408L768 418.090667V296.448l83.541333-64.298667a39.210667 39.210667 0 0 1 29.866667-6.997333c10.794667 1.92 20.224 8.106667 26.538667 17.450667z m-112.469334-163.626667a38.912 38.912 0 0 1 29.781334-7.637333 40.362667 40.362667 0 0 1 26.837333 16.810666c14.250667 20.096 11.434667 51.541333-6.912 65.450667L768 220.117333V101.973333l27.477333-22.997333zM350.421333 42.666667h320.256C699.306667 42.666667 725.333333 68.864 725.333333 97.621333V128H298.666667v-30.378667C298.666667 67.84 322.389333 42.666667 350.421333 42.666667z m-36.608 930.645333c-90.24-11.648-157.525333-51.157333-194.474666-114.261333-35.626667-60.757333-40.576-141.312-12.885334-210.133334 37.546667-93.482667 28.117333-217.173333 20.565334-316.544-4.864-63.658667-11.52-150.826667 7.765333-158.250666 12.970667-4.992 23.338667-4.181333 33.877333 2.645333C222.250667 211.541333 250.666667 382.549333 256 482.474667v317.44C256 852.906667 298.368 896 350.421333 896h175.488c-83.882667 41.130667-180.010667 82.005333-212.096 77.312zM670.72 853.333333H350.421333C321.877333 853.333333 298.666667 829.354667 298.666667 799.914667v-31.872h426.666666v31.872c0 28.458667-25.557333 53.418667-54.613333 53.418666z m200.490667-170.837333c-0.554667 0.426667-46.677333 36.949333-103.210667 73.130667v-101.632l93.994667-62.464a42.282667 42.282667 0 0 1 30.037333 5.376c8.96 5.632 15.104 14.464 17.408 24.874666 4.224 19.456-6.698667 36.949333-38.229333 60.714667z m44.288-177.706667l-72.661334 48.256L768 602.794667v-105.045334l110.976-75.690666c20.096-10.410667 42.24-2.261333 54.485333 18.901333 11.434667 23.637333 4.693333 46.592-17.962666 63.829333zM497.066667 796.16c-4.266667 4.266667-6.4 9.386667-6.4 15.36 0 5.546667 2.133333 11.093333 6.4 14.933333 3.84 3.84 9.386667 6.4 14.933333 6.4a22.613333 22.613333 0 0 0 15.36-6.4 21.504 21.504 0 0 0-0.426667-30.293333 21.76 21.76 0 0 0-29.866666 0z" /></svg>