<?xml version="1.0" standalone="no"?><!DOCTYPE svg PUBLIC "-//W3C//DTD SVG 1.1//EN" "http://www.w3.org/Graphics/SVG/1.1/DTD/svg11.dtd"><svg class="icon" width="200px" height="200.00px" viewBox="0 0 1024 1024" version="1.1" xmlns="http://www.w3.org/2000/svg"><path fill="#000000" d="M512 0c-282.8 0-512 229.2-512 512s229.2 512 512 512 512-229.2 512-512S794.8 0 512 0zM828.8 828.8c-41.2 41.2-89.1 73.5-142.4 96-55.2 23.3-113.9 35.2-174.4 35.2s-119.2-11.8-174.4-35.2c-52.9-22.4-100.5-54.3-141.4-95 3.7 1.5 7.7 2.2 11.7 2.2 4.9 0 9.9-1.1 14.5-3.5l156.7-79.6c42.2 12.7 86.6 19.1 132.4 19.1 96.7 0 188-29 257-81.5 34.4-26.2 61.5-56.9 80.6-91.3 20.2-36.4 30.4-75.1 30.4-115.2s-10.2-78.8-30.4-115.2c-19.1-34.4-46.2-65.1-80.6-91.3-69-52.6-160.3-81.5-257-81.5s-188 29-257 81.5c-34.4 26.2-61.5 56.9-80.6 91.3-20.2 36.4-30.4 75.1-30.4 115.2 0 41.1 10.8 80.8 32 117.9 15.8 27.7 36.8 52.9 62.7 75.3l-58.6 112c-4.1 7.9-4.7 16.8-2 24.9-32.8-36.7-59.1-78.3-78.3-123.7C75.8 631.2 64 572.5 64 512s11.8-119.2 35.2-174.4c22.6-53.3 54.9-101.3 96-142.4 41.2-41.2 89.1-73.5 142.4-96 55.2-23.3 113.9-35.2 174.4-35.2s119.2 11.8 174.4 35.2c53.3 22.6 101.3 54.9 142.4 96 41.2 41.2 73.5 89.1 96 142.4 23.3 55.2 35.2 113.9 35.2 174.4s-11.8 119.2-35.2 174.4C902.3 739.7 869.9 787.6 828.8 828.8zM297.6 638.8c-58.1-42.6-90.2-99-90.2-158.8 0-58.2 30.5-113.4 85.8-155.6 57.9-44.1 135.4-68.4 218.2-68.4s160.3 24.3 218.2 68.4c55.3 42.2 85.8 97.4 85.8 155.6S785 593.4 729.6 635.5c-57.9 44.1-135.4 68.4-218.2 68.4-43.5 0-85.6-6.7-125-19.9-8.1-2.7-17-2.1-24.7 1.8l-79.1 40.2 24.4-46.6C314.4 665.4 310.4 648.1 297.6 638.8zM338.4 448l320 0c17.7 0 32-14.3 32-32s-14.3-32-32-32l-320 0c-17.7 0-32 14.3-32 32S320.8 448 338.4 448zM338.4 576l320 0c17.7 0 32-14.3 32-32s-14.3-32-32-32l-320 0c-17.7 0-32 14.3-32 32S320.8 576 338.4 576z" /></svg>